<?xml version="1.0" encoding="utf-8"?>
<!-- Generator: Adobe Illustrator 16.0.0, SVG Export Plug-In . SVG Version: 6.00 Build 0)  -->
<!DOCTYPE svg PUBLIC "-//W3C//DTD SVG 1.1//EN" "http://www.w3.org/Graphics/SVG/1.1/DTD/svg11.dtd">
<svg version="1.1" id="Livingston" xmlns="http://www.w3.org/2000/svg" xmlns:xlink="http://www.w3.org/1999/xlink" x="0px" y="0px"
	 width="8709.1542969px" height="7086.9697266px" viewBox="0 0 8709.1542969 7086.9697266"
	 enable-background="new 0 0 8709.1542969 7086.9697266" xml:space="preserve">
<polygon points="2090.7661133,1611.7382813 52.8540039,4556.8662109 1399.2915039,5511.6523438 1495.9174805,5382.5732422 
	3896.3447266,7043.9599609 4750.4541016,5809.2646484 5059.5068359,6034.9609375 5253.4833984,6043.8125 5480.6513672,6748.2011719 
	6488.1621094,6578.5644531 6230.7617188,5689.7773438 6527.2675781,5267.1484375 6465.3085938,5216.2558594 
	6640.1142578,4948.515625 6573.7314453,4895.4111328 7237.5488281,3932.8808594 7133.5488281,3846.5820313 7770.8125,2915.0297852 
	7684.5175781,2850.8603516 8653.6875,1454.6357422 8308.5039063,1202.3857422 8270.8867188,1244.4277344 7412.3535156,662.4829102 
	7527.4150391,489.890625 6890.1513672,45.1347656 6283.8671875,912.5195313 5363.3759766,268.6191406 3599.8408203,2804.3935547 
	3356.440918,2642.8652344 3431.6728516,2547.7177734 "/>
</svg>
