<?xml version="1.0" encoding="utf-8"?>
<!-- Generator: Adobe Illustrator 16.0.0, SVG Export Plug-In . SVG Version: 6.00 Build 0)  -->
<!DOCTYPE svg PUBLIC "-//W3C//DTD SVG 1.1//EN" "http://www.w3.org/Graphics/SVG/1.1/DTD/svg11.dtd">
<svg version="1.1" id="Livingston" xmlns="http://www.w3.org/2000/svg" xmlns:xlink="http://www.w3.org/1999/xlink" x="0px" y="0px"
	 width="485.875px" height="395.375px" viewBox="0 0 485.875 395.375" enable-background="new 0 0 485.875 395.375"
	 xml:space="preserve">
<polygon points="115.125,88.5 0,254.875 76.0625,308.8125 81.521,301.52051 217.125,395.375 265.375,325.625 282.83398,338.375 
	293.79199,338.875 306.625,378.66699 363.54102,369.08398 349,318.875 365.75,295 362.25,292.125 372.125,277 368.375,274 
	405.875,219.625 400,214.75 436,162.125 431.125,158.5 485.875,79.625 466.375,65.375 464.25,67.75 415.75,34.875 422.25,25.125 
	386.25,0 352,49 300,12.625 200.375,155.875 186.625,146.75 190.875,141.375 "/>
</svg>
